<?xml version="1.0" encoding="UTF-8" standalone="no"?>
<svg id="svg2" xmlns:rdf="http://www.w3.org/1999/02/22-rdf-syntax-ns#" xmlns="http://www.w3.org/2000/svg" xlink="http://www.w3.org/1999/xlink" viewBox="0 0 522.4 635.49" version="1.1" xmlns:cc="http://creativecommons.org/ns#" xmlns:xlink="http://www.w3.org/1999/xlink" xmlns:dc="http://purl.org/dc/elements/1.1/">
 <metadata id="metadata190">
  <rdf:RDF>
   <cc:Work rdf:about="">
    <dc:format>image/svg+xml</dc:format>
    <dc:type rdf:resource="http://purl.org/dc/dcmitype/StillImage"/>
    <dc:title/>
   </cc:Work>
  </rdf:RDF>
 </metadata>
 <g id="svga-group-wrapper" transform="matrix(3,0,0,3,-37.475529,-16.535898)">
  <g id="svga-group-subwrapper" transform="matrix(0.84999948,0,0,0.84999948,14.676276,16.744709)">
   <g id="svga-group-hair-back">
    <path id="SvgjsPath4941" d="m100.5,100.5h-1v-1h1v1z" stroke-width="none" fill="#2a232b"/>
   </g>
   <g id="svga-group-humanbody-single">
    <path id="SvgjsPath2893" d="m195.42,199.78c-2.196-4.746-8.195-11.779-14.86-13.722-8.239-2.403-26.837-5.308-33.733-6.923-5.528-1.296-16.662-11.294-20.564-14.65-0.7-0.6-1.273-1.839-1.287-2.76-0.139-10.864,4.195-39.724,4.195-39.724h-58.347s4.334,28.859,4.193,39.724c-0.011,0.921-0.587,2.16-1.285,2.76-3.902,3.356-15.036,13.354-20.564,14.65-6.897,1.615-25.495,4.619-33.733,7.022-6.667,1.942-12.664,8.876-14.86,13.622-3.708,8.008-4.584,22.5-4.584,35h200c0-12.499-0.877-26.991-4.583-34.999z" stroke-width="none" fill="#e9b995"/>
    <path id="SvgjsPath2894" d="m159.16,184.06c24.342,3.542,34.586,8.708,37.794,50.721h3.05c0-12.5-0.877-26.992-4.583-35-2.196-4.746-8.195-11.779-14.86-13.722-8.239-2.403-26.837-5.308-33.733-6.923-5.528-1.296-18.242-12.069-21.643-16.35,3.36,4.704,12.791,15.605,21.054,18.46,3.953,1.366,7.245,1.988,12.921,2.814zm-105.39-2.814c8.263-2.854,17.693-13.756,21.054-18.46-3.4,4.28-16.114,15.054-21.643,16.35-6.896,1.615-25.494,4.619-33.733,7.022-6.665,1.942-12.664,8.876-14.86,13.622-3.706,8.008-4.583,22.5-4.583,35h3.05c3.188-41.744,13.475-47.183,37.794-50.721,5.675-0.825,8.968-1.447,12.921-2.813z" stroke-width="none" fill="#f8d3b8"/>
    <path id="SvgjsPath2895" d="m95.646,197.62s-5.074-1.609-7.083-2.379c-10.449-4.009-44.395-6.607-44.395-6.607s35.754,1.419,43.644,2.779c-0.458-4.767-3.017-20.004-3.017-20.004s5.149,16.815,6.409,21.057c0.674,2.268,4.442,5.154,4.442,5.154zm10.799-1.342c-0.089,0.073-0.191,0.168-0.302,0.268,0.113-0.085,0.215-0.174,0.302-0.268zm-10.799,1.342s2.893,2.992,4.347,3.03c1.91,0.051,4.828-2.899,6.151-4.104-1.265,0.957-4.159,1.391-5.31,1.436-1.33,0.051-5.188-0.362-5.188-0.362zm21.018-7.519c-1.545,0.248-4.386,0.789-4.386,0.789l2.29-14.89c-0.646,3.071-4.474,16.211-8.12,20.278,1.91-1.616,6.158-2.391,8.324-2.704,10.236-1.484,10.232-1.483,41.062-4.94,0,0-29.071-0.155-39.167,1.467z" stroke-width="none" fill="#daa075"/>
    <path id="SvgjsPath2896" d="m195.42,199.78c-2.196-4.746-8.195-11.779-14.86-13.722-8.239-2.403-26.837-5.308-33.733-6.923-5.528-1.296-16.662-11.294-20.564-14.65-0.7-0.6-1.273-1.839-1.287-2.76-0.139-10.864,4.195-39.724,4.195-39.724h-58.347s4.334,28.859,4.193,39.724c-0.011,0.921-0.587,2.16-1.285,2.76-3.902,3.356-15.036,13.354-20.564,14.65-6.897,1.615-25.495,4.619-33.733,7.022-6.667,1.942-12.664,8.876-14.86,13.622-3.708,8.008-4.584,22.5-4.584,35h200c0-12.499-0.877-26.991-4.583-34.999z" stroke="#bb7440" stroke-width="1.5" fill="none"/>
   </g>
   <g id="svga-group-chinshadow-single">
    <path id="SvgjsPath6310" fill="url(#SvgjsLinearGradient6311)" d="m75.602,162.78c7.126,5.302,15.497,9.087,24.401,9.087,8.902,0,17.269-3.781,24.394-9.08-0.104-0.358-0.17-0.718-0.175-1.053-0.088-6.862,1.561-20.607,2.82-30.025-15.654-1.97-38.431-1.97-54.084,0,1.26,9.419,2.908,23.163,2.819,30.024-0.004,0.331-0.07,0.688-0.175,1.047z"/>
   </g>
   <g id="svga-group-clothes-single" stroke-width="none">
    <path id="SvgjsPath6172" d="m111.81,235.89c-19.135,0-41.455-0.074-68.233-0.229l-23.683-0.13c-14.298-0.08-15.141-0.09-16.887-0.09l-4.899,0.007c-4.571-41.875,14.41-52.87,43.762-56.708,7.789-1.097,15.449-3.097,21.459-6.972,16.327,22.243,64.811,17.562,73.103-0.629,1.39,0.53,2.539,1.215,3.977,1.734,4.666,3.433,11.072,5.836,17.628,6.199,26.008,1.441,44.419,12.996,44.057,54.64,0.003,0.165,0.004,1.175-0.013,1.49-12.513,0-17.206,0.121-27.034,0.262-13.331,0.19-29.923,0.427-63.229,0.427-0.005,0.001-0.008,0.001-0.012,0.001z" fill="#1d282e"/>
    <path id="SvgjsPath6173" d="m201.06,234.64c-0.41-7.385-4.064-28.058-10.36-37.541-12.482-18.805-42.26-12.206-49.132-19.693-4.986,10.159-24.975,16.595-31.594,17.54,19.181-6.36,27.237-10.959,30.42-21.87,6.405,8.33,41.074,1.971,54.717,24.331,3.995,6.547,7.794,27.386,5.949,37.233zm-145.25-57.01c1.357-0.315,2.034-1.249,3.381-1.614l-1.426-1.891c-9.049,7.052-42.909,2.645-54.519,24.036-3.659,6.741-6.127,22.788-4.192,36.439,0.537-8.384,0.799-26.314,7.095-35.798,11.324-17.06,31.974-12.553,47.619-19.775,6.983,8.6,17.888,12.828,28.984,14.577-13.921-3.65-21.903-9.78-26.942-15.99z" fill="#2d373d"/>
    <path id="SvgjsPath6174" d="m135.31,173.24c-5.532,11.514-47.35,24.923-70.93,0.879-1.466,0.622-5.852,2.112-5.852,2.112,17.176,23.386,67.511,23.534,80.909-0.114-0.059-0.023-2.765-2.185-4.127-2.877z" fill="#101a1f"/>
    <path id="SvgjsPath6175" d="m136.38,171c-9.413,18.822-58.397,21.485-73.012,0.632-5.337,1.578-10.469,4.941-15.636,5.782-30.92,4.605-53.778,6.919-49.732,58.136,9.94,0-6.611-0.065,45.571,0.215,123.59,0.71,119.56-0.461,158.61-0.461,0.029-0.14,0.015-1.452,0.021-1.596,2.096-56.436-30.852-53.104-53.12-56.995-3.144-0.718-6.066-2.773-8.635-3.945-1.419-0.649-2.625-1.232-4.063-1.768zm-73.366,1.263c12.974,23.392,64.219,18.699,74.113,0.101,1.2,0.504,1.507,0.704,2.898,1.197-10.248,21.489-60.942,28.337-81.677,1.163,0.146-0.041,3.204-1.913,4.666-2.461zm-63.859,62.513c-2.421-26.431,1.797-48.043,32.78-53.345,10.276-1.896,16.557-1.962,25.384-5.794,16.763,27.405,72.098,23.158,83.598-1.305,1.652,1.409,4.228,3.03,7.405,3.785,18.098,4.299,54.838-0.894,52.898,56.658-54.057-0.702-98.865-2.344-202.06,0.001z" fill="#000"/>
   </g>
   <g id="svga-group-head">
    <g id="svga-group-ears-left">
     <path id="SvgjsPath6361" d="m47.001,83.231c-1.376-2.453-5.638-8.48-9.98-7.003-2.749,0.935-3.293,3.993-3.735,6.693-0.588,3.591,0.471,10.694,1.389,13.26,0.881,2.467,3.533,7.23,5.264,9.045,2.13,2.225,4.775,9.324,5.194,10.061,0.66,1.162,1.536,2.911,4.122,2.692,2.853-0.244,4.584-1.85,5.856-2.121,3.142-0.666-4.529-26.242-8.11-32.627z" stroke="#bb7440" stroke-width="1.5" fill="#e9b995"/>
     <path id="SvgjsPath6362" d="m44.197,98.104c-0.132-0.581,0.007-1.56,0.142-2.504,0.124-0.861,0.24-1.675,0.169-2.251-0.267-2.154-1.773-6.249-2.757-8.467-1.132-2.554-2.963-5.77-5.262-6.599-0.95-0.343-1.575,0.067-1.938,0.484-0.266,0.305-0.325,0.665-0.238,0.707,0.086,0.042,0.285-0.254,0.572-0.535,0.235-0.229,0.579-0.426,1.051-0.385-0.19,1.073-1.167,6.883-0.744,10.845,0.333,3.115,1.593,5.442,1.79,5.791,0.029,0.367,0.077,0.726,0.148,1.075,0.929,4.547,4.971,9.717,6.378,11.409,0.259,0.313,0.531,0.497,0.598,0.423,0.066-0.076-0.094-0.387-0.353-0.7-1.388-1.679-5.391-6.831-6.289-11.218-0.952-4.656,2.318-11.556,3.048-13.017,0.371,0.685,0.687,1.344,0.93,1.893,0.19,0.431,0.402,0.936,0.619,1.479-0.429,0.762-3.434,6.32-2.338,10.767,0.406,1.641,2.235,3.755,3.447,4.333,0.667,0.32,0.919,0.797,1.209,1.349,0.336,0.64,0.718,1.365,1.828,1.892,0.225,0.108,0.429,0.151,0.61,0.151,0.313,0,0.551-0.135,0.725-0.293,0.018,0.28,0.017,0.64,0.009,0.97-0.012,0.431,0.042,0.783,0.137,0.791,0.094,0.008,0.196-0.332,0.207-0.76,0.016-0.526,0.013-1.177-0.072-1.488-0.248-0.917-1.008-1.953-1.813-3.048-0.789-1.082-1.607-2.195-1.813-3.094zm-7.247-4.031c-2.177-7.139,0.656-13.3,1.144-14.28,0.85,0.822,1.6,1.919,2.21,2.995-0.444,0.858-3.263,6.483-3.354,11.285zm9.391,10.442c-1.004-0.475-1.339-1.115-1.666-1.733-0.293-0.559-0.598-1.136-1.369-1.505-0.168-0.081-0.352-0.203-0.542-0.343-2.486-6.263,0.272-9.001,0.963-9.562,0.211,0.766,0.369,1.468,0.439,2.031,0.063,0.517-0.052,1.339-0.167,2.134-0.142,0.985-0.286,2.004-0.137,2.664,0.226,0.982,1.069,2.131,1.884,3.242,0.723,0.986,1.466,2.003,1.721,2.832-0.108,0.164-0.45,0.561-1.126,0.24z" stroke-width="none" fill="#bb7440"/>
    </g>
    <g id="svga-group-ears-right">
     <path id="SvgjsPath6363" d="m152.74,83.231c1.377-2.453,5.639-8.48,9.98-7.003,2.75,0.935,3.293,3.993,3.736,6.693,0.588,3.591-0.471,10.694-1.389,13.26-0.881,2.467-3.533,7.23-5.266,9.045-2.129,2.225-4.775,9.324-5.193,10.061-0.658,1.162-1.535,2.911-4.121,2.692-2.854-0.244-4.584-1.85-5.857-2.121-3.142-0.666,4.53-26.242,8.11-32.627z" stroke="#bb7440" stroke-width="1.5" fill="#e9b995"/>
     <path id="SvgjsPath6364" d="m153.73,101.2c-0.805,1.096-1.564,2.131-1.813,3.048-0.086,0.311-0.088,0.962-0.072,1.488,0.012,0.428,0.113,0.768,0.207,0.76s0.148-0.36,0.137-0.791c-0.008-0.331-0.008-0.69,0.01-0.97,0.174,0.158,0.412,0.293,0.725,0.293,0.182,0,0.385-0.043,0.609-0.151,1.109-0.526,1.492-1.252,1.828-1.892,0.289-0.552,0.543-1.028,1.209-1.349,1.213-0.578,3.041-2.692,3.447-4.333,1.096-4.447-1.908-10.005-2.338-10.767,0.217-0.544,0.43-1.049,0.619-1.479,0.244-0.549,0.559-1.208,0.93-1.893,0.73,1.46,4,8.361,3.049,13.017-0.896,4.387-4.9,9.539-6.289,11.218-0.258,0.313-0.418,0.624-0.352,0.7,0.066,0.074,0.338-0.109,0.598-0.423,1.406-1.692,5.449-6.862,6.379-11.409,0.07-0.35,0.117-0.708,0.146-1.075,0.197-0.349,1.459-2.676,1.791-5.791,0.422-3.961-0.555-9.772-0.744-10.845,0.473-0.042,0.814,0.156,1.051,0.385,0.287,0.281,0.486,0.577,0.572,0.535s0.027-0.402-0.238-0.707c-0.363-0.417-0.988-0.827-1.938-0.484-2.299,0.83-4.131,4.045-5.262,6.599-0.984,2.218-2.49,6.313-2.758,8.467-0.072,0.576,0.045,1.39,0.17,2.251,0.135,0.945,0.273,1.924,0.141,2.504-0.205,0.901-1.023,2.014-1.814,3.094zm5.707-18.409c0.611-1.075,1.361-2.173,2.211-2.995,0.488,0.98,3.32,7.141,1.145,14.28-0.093-4.801-2.911-10.426-3.356-11.285zm-7.164,21.488c0.254-0.829,0.998-1.846,1.721-2.832,0.816-1.111,1.658-2.26,1.885-3.242,0.148-0.66,0.004-1.679-0.137-2.664-0.115-0.795-0.23-1.617-0.166-2.134,0.068-0.563,0.227-1.266,0.438-2.031,0.691,0.561,3.449,3.299,0.965,9.562-0.191,0.14-0.375,0.263-0.543,0.343-0.771,0.369-1.074,0.946-1.369,1.505-0.326,0.618-0.662,1.258-1.666,1.733-0.677,0.321-1.019-0.076-1.128-0.24z" stroke-width="none" fill="#bb7440"/>
    </g>
    <g id="svga-group-faceshape-wrap">
     <g id="svga-group-faceshape-single">
      <path id="SvgjsPath6307" d="M100,0.867c-33.619-0.054-60.814,27.476-60.866,61.499-0.008,5.403,0.669,10.645,1.953,15.641h0.004c0.011,0.054,8.713,39.241,14.519,51.175,6.073,12.487,23.814,32.685,44.392,32.685,20.582,0,38.32-20.197,44.392-32.685,5.805-11.935,14.507-51.122,14.519-51.175h0.005c1.28-4.995,1.96-10.236,1.95-15.639-0.05-34.023-27.25-61.553-60.87-61.499z" stroke-width="none" fill="#e9b995"/>
      <path id="SvgjsPath6308" d="m120.75,4.512c21.441,9.489,36.411,31.135,36.45,56.363,0.008,5.403-0.669,10.645-1.953,15.641h-0.005c-0.011,0.054-8.713,39.24-14.519,51.177-5.709,11.738-21.608,32.469-40.725,32.469s-35.016-20.73-40.725-32.469c-5.799-11.93-14.5-51.12-14.512-51.174h-0.004c-1.284-4.997-1.962-10.238-1.953-15.641,0.038-25.229,15.008-46.874,36.45-56.363-23.386,8.55-40.076,31.208-40.117,57.854-0.008,5.403,0.669,10.645,1.953,15.641h0.004c0.011,0.054,8.713,39.241,14.519,51.175,6.073,12.487,23.814,32.685,44.392,32.685,20.579,0,38.319-20.197,44.392-32.685,5.805-11.935,14.507-51.122,14.519-51.175h0.005c1.28-4.995,1.96-10.236,1.95-15.639-0.04-26.646-16.73-49.304-40.12-57.854z" stroke-width="none" fill="#e1ac85"/>
      <path id="SvgjsPath6309" d="M100,0.867c-33.619-0.054-60.814,27.476-60.866,61.499-0.008,5.403,0.669,10.645,1.953,15.641h0.004c0.011,0.054,8.713,39.241,14.519,51.175,6.073,12.487,23.814,32.685,44.392,32.685,20.582,0,38.32-20.197,44.392-32.685,5.805-11.935,14.507-51.122,14.519-51.175h0.005c1.28-4.995,1.96-10.236,1.95-15.639-0.05-34.023-27.25-61.553-60.87-61.499z" stroke="#bb7440" stroke-width="1.5" fill="none"/>
     </g>
    </g>
    <g id="svga-group-mouth-single">
     <path id="SvgjsPath4956" fill="url(#SvgjsLinearGradient4957)" d="m99.999,139.5c-5.771,0-7.125-2.385-7.125-2.385h14.253s-2.053,2.385-7.128,2.385z"/>
     <path id="SvgjsPath4960" d="m82.714,133.24c3.826-0.701,8.662-2.674,11.707-2.744,1.573-0.038,3.262,0.642,4.961,0.859,1.18,0.153,4.529-0.853,5.732-0.859,3.155-0.018,8.781,2.043,12.174,2.744,0,0-7.021,4.444-17.287,4.444-11.62,0-17.287-4.444-17.287-4.444z" stroke-width="none" fill="#da7c87"/>
     <path id="SvgjsPath4961" d="m117.76,133.2c-0.258-0.056-0.84-0.021-1.045-0.016-0.422,0.013-0.756-0.085-1.682-0.094-1.033-0.009-5.48-0.199-6.948-0.25-2.954-0.106-5.31,0.49-8.118,0.49-2.811,0-5.368-0.653-8.323-0.548-1.466,0.056-5.709,0.293-6.743,0.308-0.921,0.013-1.282,0.098-1.709,0.089-0.199-0.007-0.827-0.037-1.072,0.034-0.203,0.064-0.124,0.414,0.04,0.505,0.395,0.22,1.938-0.171,2.719-0.161,1.078,0.011,5.335-0.037,6.826-0.09,2.888-0.104,5.464,0.606,8.262,0.606,2.801,0,5.173-0.657,8.063-0.553,1.485,0.053,5.941,0.044,7.021,0.036,0.783-0.01,2.45,0.33,2.849,0.161,0.19-0.08,0.088-0.467-0.14-0.517z" stroke-width="none" fill="#ac2e3d"/>
     <path id="SvgjsPath4962" d="m87.409,134.11c1.815-0.054,3.684-0.205,5.5-0.162,2.239,0.052,4.365,0.521,6.604,0.6,2.417,0.085,4.659-0.36,7.028-0.515,1.975-0.123,4.068,0.044,6.05,0.084-9.292,3.785-19.204,2.624-25.182-0.007zm19.479-1.808c1.823-0.063,3.693,0.062,5.516,0.103-9.196-2.434-7.134-0.943-11.926-0.519-2.092,0.186-3.736-0.851-5.776-0.851-2.21,0.052-4.438,0.812-6.352,1.335,1.779-0.06,3.608-0.194,5.392-0.104,2.181,0.105,4.295,0.526,6.498,0.526,2.249,0.001,4.4-0.42,6.648-0.49z" stroke-width="none" fill="#e28c96"/>
     <path id="SvgjsPath4963" d="m87.409,134.11c1.815-0.054,3.684-0.205,5.5-0.162,2.239,0.052,4.365,0.521,6.604,0.6,2.417,0.085,4.659-0.36,7.028-0.515,1.975-0.123,4.068,0.044,6.05,0.084-9.292,3.785-19.204,2.624-25.182-0.007zm19.479-1.808c1.823-0.063,3.693,0.062,5.516,0.103-9.196-2.434-7.134-0.943-11.926-0.519-2.092,0.186-3.736-0.851-5.776-0.851-2.21,0.052-4.438,0.812-6.352,1.335,1.779-0.06,3.608-0.194,5.392-0.104,2.181,0.105,4.295,0.526,6.498,0.526,2.249,0.001,4.4-0.42,6.648-0.49z" stroke-width="none" fill="#e99ca5"/>
    </g>
    <g id="svga-group-eyes-left">
     <g id="svga-group-eyesback-left">
      <path id="SvgjsPath6102" fill="url(#SvgjsRadialGradient6103)" d="m59.722,85.795c2.578,4.596,2.19,5.704,10.268,4.467,9.691,0,17.711-1.976,17.711-5.558s-4.925-7.115-17.196-4.923c-6.016,1.074-10.783,4.219-10.783,6.014z"/>
     </g>
     <g id="svga-group-eyesiriswrapper-left" transform="translate(0.25,0.25)">
      <g id="svga-group-eyesiriscontrol-left">
       <g id="svga-group-eyesiris-left">
        <path id="SvgjsPath4971" d="m79.788,85.588c-0.869,3.192-4.162,5.073-7.361,4.196-3.197-0.876-5.084-4.178-4.214-7.371,0.869-3.195,4.168-5.076,7.365-4.198,3.194,0.875,5.081,4.177,4.21,7.373z" stroke="#152975" stroke-width="0.5" fill="#4e60a3"/>
        <path id="SvgjsPath4972" d="m78.855,85.662c-0.849,2.452-3.407,3.881-5.899,3.199-2.3-0.631-3.752-2.838-3.563-5.171,0.853-0.067,1.787-0.087,2.756-0.04-0.01,0.033-0.027,0.062-0.036,0.096-0.306,1.125,0.407,2.305,1.592,2.63,1.189,0.326,2.401-0.326,2.707-1.451,0.039-0.147,0.06-0.294,0.065-0.439,0.813,0.296,1.611,0.679,2.378,1.176z" stroke-width="none" fill="#6777b2"/>
        <path id="SvgjsPath4973" opacity="0.9" d="m74.813,82.21c-1.203-0.344-2.429,0.342-2.739,1.54-0.311,1.191,0.412,2.438,1.614,2.783,1.204,0.345,2.43-0.342,2.741-1.534,0.313-1.198-0.413-2.444-1.616-2.789zm0.262,4.232c-0.5,0.156-1.017-0.051-1.154-0.462-0.133-0.411,0.163-0.867,0.667-1.019,0.503-0.156,1.019,0.051,1.157,0.459,0.136,0.411-0.163,0.867-0.67,1.022z" stroke-width="none" fill="#000"/>
        <path id="SvgjsPath4974" opacity="0.6" d="m70.811,87.159c-0.37,0.222-0.922,0.023-1.238-0.447-0.316-0.466-0.269-1.024,0.102-1.247,0.368-0.219,0.925-0.021,1.239,0.446,0.312,0.467,0.267,1.027-0.103,1.248z" stroke-width="none" fill="#FFF"/>
        <path id="SvgjsPath4975" opacity="0.8" d="m78.71,83.74c-0.846,0.507-2.117,0.051-2.837-1.02-0.72-1.072-0.612-2.352,0.234-2.857,0.844-0.509,2.118-0.053,2.834,1.019,0.719,1.072,0.615,2.35-0.231,2.858z" stroke-width="none" fill="#FFF"/>
       </g>
      </g>
     </g>
     <g id="svga-group-eyesfront-left">
      <path id="SvgjsPath6127" d="m54.8,84.999c0,13.807,8.507,25,19,25s19-11.193,19-25-8.507-25-19-25-19,11.193-19,25zm4.922,0.796c0-1.795,4.768-4.939,10.782-6.014,12.271-2.192,17.196,1.342,17.196,4.923,0,3.582-8.02,5.558-17.711,5.558-8.077,1.237-7.689,0.129-10.267-4.467z" stroke-width="none" fill="#e9b995"/>
      <path id="SvgjsPath6128" fill="url(#SvgjsRadialGradient6129)" d="M58.697,86.046c-0.075,6.904,8.647,12.467,18.038,12.434,9.389-0.04,16.987-5.663,16.962-12.568-0.023-6.903-7.647-12.467-17.04-12.431-9.392,0.038-17.858,3.121-17.96,12.565zm1.025-0.251c0-1.795,4.768-4.939,10.782-6.014,12.271-2.192,17.196,1.342,17.196,4.923,0,3.582-8.02,5.558-17.711,5.558-8.077,1.237-7.689,0.129-10.267-4.467z"/>
      <path id="SvgjsPath6133" fill="url(#SvgjsRadialGradient6134)" d="m59.722,85.795c2.578,4.596,2.19,5.704,10.268,4.467,9.691,0,17.711-1.976,17.711-5.558s-4.925-7.115-17.196-4.923c-6.016,1.074-10.783,4.219-10.783,6.014z"/>
      <path id="SvgjsPath6137" d="m86.716,88.797s-1.383,0.778-2.354,1.036c-1.209,0.318-4.997,0.895-11.562,1.795,7.49-0.531,10.48-0.82,11.762-1.189,1.016-0.292,2.154-1.642,2.154-1.642z" stroke-width="none" fill="#bb7440"/>
      <path id="SvgjsPath6138" d="m87.757,83.463c0.062,0.073,0.057,0.18-0.011,0.247-0.068,0.066-0.175,0.069-0.247,0.007l-3.871-3.383c-11.411-1.304-19.93,0.687-23.25,5.247l0.536,2.4-3.114-2.69c3.172-4.526,6.306-7.915,25.828-6.735,2.305,2.252,3.509,3.379,4.129,4.907zm-1.125,3.979c0.082-0.079,0.102-0.205,0.048-0.306-0.052-0.103-0.166-0.156-0.279-0.135-3.954,2.317-11.021,2.523-22.642,3.426l-2.25-1.384,1.653,2.046c12.582-0.588,21.844-1.333,23.47-3.647z" stroke-width="none" fill="#000"/>
     </g>
    </g>
    <g id="svga-group-eyes-right">
     <g id="svga-group-eyesback-right">
      <path id="SvgjsPath6110" fill="url(#SvgjsRadialGradient6111)" d="m139.88,85.795c-2.578,4.596-2.19,5.704-10.268,4.467-9.691,0-17.711-1.976-17.711-5.558s4.925-7.115,17.196-4.923c6.015,1.074,10.783,4.219,10.783,6.014z"/>
     </g>
     <g id="svga-group-eyesiriswrapper-right" transform="translate(-0.25,0.25)">
      <g id="svga-group-eyesiriscontrol-right">
       <g id="svga-group-eyesiris-right">
        <path id="SvgjsPath4976" d="m131.79,85.588c-0.869,3.192-4.162,5.073-7.362,4.196-3.196-0.876-5.084-4.178-4.214-7.371,0.869-3.195,4.169-5.076,7.365-4.198,3.195,0.875,5.081,4.177,4.211,7.373z" stroke="#152975" stroke-width="0.5" fill="#4e60a3"/>
        <path id="SvgjsPath4977" d="m130.86,85.662c-0.849,2.452-3.408,3.881-5.899,3.199-2.3-0.631-3.753-2.838-3.563-5.171,0.854-0.067,1.787-0.087,2.756-0.04-0.01,0.033-0.027,0.062-0.036,0.096-0.306,1.125,0.407,2.305,1.593,2.63,1.189,0.326,2.401-0.326,2.707-1.451,0.038-0.147,0.06-0.294,0.065-0.439,0.812,0.296,1.611,0.679,2.377,1.176z" stroke-width="none" fill="#6777b2"/>
        <path id="SvgjsPath4978" opacity="0.9" d="m126.81,82.21c-1.202-0.344-2.429,0.342-2.738,1.54-0.312,1.191,0.412,2.438,1.613,2.783,1.204,0.345,2.431-0.342,2.742-1.534,0.311-1.198-0.414-2.444-1.617-2.789zm0.262,4.232c-0.5,0.156-1.018-0.051-1.154-0.462-0.133-0.411,0.163-0.867,0.667-1.019,0.503-0.156,1.019,0.051,1.157,0.459,0.136,0.411-0.163,0.867-0.67,1.022z" stroke-width="none" fill="#000"/>
        <path id="SvgjsPath4979" opacity="0.6" d="m122.81,87.159c-0.37,0.222-0.923,0.023-1.238-0.447-0.316-0.466-0.27-1.024,0.102-1.247,0.367-0.219,0.926-0.021,1.239,0.446,0.312,0.467,0.266,1.027-0.103,1.248z" stroke-width="none" fill="#FFF"/>
        <path id="SvgjsPath4980" opacity="0.8" d="m130.71,83.74c-0.846,0.507-2.116,0.051-2.837-1.02-0.72-1.072-0.612-2.352,0.234-2.857,0.845-0.509,2.117-0.053,2.834,1.019,0.719,1.072,0.616,2.35-0.231,2.858z" stroke-width="none" fill="#FFF"/>
       </g>
      </g>
     </g>
     <g id="svga-group-eyesfront-right">
      <path id="SvgjsPath6148" d="m125.8,59.999c-10.493,0-19,11.193-19,25s8.507,25,19,25,19-11.193,19-25-8.507-25-19-25zm3.81,30.263c-9.691,0-17.711-1.976-17.711-5.558s4.925-7.115,17.196-4.923c6.015,1.074,10.782,4.218,10.782,6.014-2.577,4.596-2.19,5.704-10.267,4.467z" stroke-width="none" fill="#e9b995"/>
      <path id="SvgjsPath6149" fill="url(#SvgjsRadialGradient6150)" d="m122.94,73.48c-9.393-0.036-17.017,5.528-17.04,12.431-0.025,6.906,7.573,12.529,16.962,12.568,9.391,0.034,18.113-5.529,18.038-12.434-0.101-9.443-8.567-12.526-17.96-12.565zm6.668,16.782c-9.691,0-17.711-1.976-17.711-5.558s4.925-7.115,17.196-4.923c6.015,1.074,10.782,4.218,10.782,6.014-2.577,4.596-2.19,5.704-10.267,4.467z"/>
      <path id="SvgjsPath6154" fill="url(#SvgjsRadialGradient6155)" d="m139.88,85.795c-2.578,4.596-2.19,5.704-10.268,4.467-9.691,0-17.711-1.976-17.711-5.558s4.925-7.115,17.196-4.923c6.015,1.074,10.783,4.219,10.783,6.014z"/>
      <path id="SvgjsPath6158" d="m112.88,88.797s1.383,0.778,2.354,1.036c1.209,0.318,4.997,0.895,11.562,1.795-7.49-0.531-10.48-0.82-11.762-1.189-1.017-0.292-2.154-1.642-2.154-1.642z" stroke-width="none" fill="#bb7440"/>
      <path id="SvgjsPath6159" d="m115.97,78.555c19.522-1.179,22.656,2.209,25.828,6.735l-3.114,2.69,0.536-2.4c-3.32-4.56-11.839-6.551-23.25-5.247l-3.871,3.383c-0.072,0.063-0.179,0.06-0.247-0.007-0.067-0.066-0.072-0.174-0.011-0.247,0.62-1.527,1.824-2.654,4.129-4.907zm20.465,12.535,1.653-2.046-2.25,1.384c-11.621-0.903-18.688-1.109-22.642-3.426-0.113-0.021-0.228,0.032-0.279,0.135-0.054,0.102-0.034,0.227,0.048,0.306,1.627,2.313,10.888,3.058,23.47,3.647z" stroke-width="none" fill="#000"/>
     </g>
    </g>
    <g id="svga-group-facehighlight-single">
     <path id="SvgjsPath2885" fill="url(#SvgjsRadialGradient2886)" d="m141,113.97c0.035,22.622-18.292,40.994-40.938,41.025-22.642,0.037-41.028-18.273-41.063-40.9-0.035-22.62,18.292-41.064,40.937-41.1,22.643-0.035,41.031,18.35,41.064,40.975z"/>
     <path id="SvgjsPath2889" fill="url(#SvgjsRadialGradient2890)" d="m137.5,53.999c0,20.711-16.789,37.5-37.499,37.5-20.711,0-37.501-16.789-37.501-37.5s16.79-37.5,37.501-37.5c20.71,0,37.499,16.789,37.499,37.5z"/>
    </g>
    <g id="svga-group-eyebrows-left">
     <path id="SvgjsPath4981" d="m52.488,73.87c7.475-9.383,20.338-7.822,30.878-6.314,2.681,0.384,5.441,0.672,8.07,1.336,1.884,0.475,3.365,2.622,1.851,4.356-0.708,0.825-2.253,0.672-3.207,0.652-12.621-0.255-26.887-7.513-37.592-0.03z" stroke-width="none" fill="#2a232b"/>
    </g>
    <g id="svga-group-eyebrows-right">
     <path id="SvgjsPath4982" d="m147.58,73.49c-2.164-1.448-4.454-2.47-7.043-2.889-9.497-1.54-27.586,4.79-32.341,3.45-2.912-0.822-2.323-3.739-1.035-4.458,0.775-0.433,0.99-0.422,7.909-1.612,11.757-2.02,24.921-3.626,32.51,5.509z" stroke-width="none" fill="#2a232b"/>
    </g>
    <g id="svga-group-nose-single" stroke-width="none">
     <path id="SvgjsPath6326" d="m96.831,88.524s-1.399,11.117-2.026,13.281c-1.379,4.752-6.168,11.417-5.239,14.429,1.859,6.022,7.537,4.493,10.524,4.471,2.763-0.022,8.072,1.552,9.162-2.37,0.352-1.266-0.441-4.466-0.441-4.466s-2.644,3.112-8.875,2.767c-1.778-0.099-4.671-2.096-4.704-4.912-0.043-3.817,1.802-7.035,2.205-10.824,0.304-2.878-0.606-12.376-0.606-12.376z" fill="#daa075"/>
     <path id="SvgjsPath6327" d="m105.19,118.97c1.075,0,1.366,0.326,1.366,0.729,0,0.404-0.335,1.026-1.366,0.73-1.134-0.323-3.113-0.175-3.113-0.175s2.036-1.284,3.113-1.284zm-10.272,0c-1.077,0.001-1.366,0.328-1.366,0.733-0.001,0.403,0.323,0.983,1.366,0.729,1.15-0.282,3.112-0.175,3.112-0.175s-2.035-1.283-3.112-1.287zm13.888-5.1s1.489,1.933,1.18,3.975c-0.301,1.983-3.31,2.861-3.31,2.861s2.089-1.516,2.342-3.356c0.118-0.863-0.212-3.48-0.212-3.48zm-18.383-1.986s-1.086,2.704-0.772,4.352c0.571,2.976,3.704,4.164,3.704,4.164s-1.955-2.039-2.65-3.842c-0.761-1.97-0.282-4.674-0.282-4.674z" fill="#bb7440"/>
     <path id="SvgjsPath6328" d="m105.14,115.31c1.043-0.889,1.148-1.396,0.932-1.729-0.215-0.334-0.841-0.545-1.714,0.528-0.963,1.18-3.056,2.054-3.056,2.054s2.795,0.034,3.838-0.853z" fill="#f8d3b8"/>
    </g>
    <g id="svga-group-beardwrap">
     <g id="svga-group-beard-single" stroke-width="none">
      <path id="SvgjsPath6366" d="m150.78,88.74c-3.07,1.75-5.3,2.95-7.16,4.25-11.33,7.55-12.48,25.22-14.44,41.87-5.95-10.49-5.03-12.28-12.86-13.87-9.61-2.1-12.81-3.02-16.32,1.62-2.72-2.76-3.71-4.23-10.28-2.8-11.7,2.31-12.28,2.01-15.77,9.5-0.25,0.59-2.83,4.99-3.13,5.56-0.57-3.98,0.05-4.11-1.58-12.88-1.72-9.07-2.45-16.22-6.94-23.31-4.34-6.03-13.78-10.55-18.4-12.1,0,7.61,0.73,18.98,0.87,20.44,1.75,17.86,8.72,45.74,21.16,57.45,10.4,9.39,21.98,8.75,34.11,8.75,6.25,0,18.06,0.43,25.25-3.06,9.77-3.78,16.54-14.45,20.4-24.19,6.72-16.43,10.41-32.87,10.41-59.39-3.55,1.34-4.24,1.49-5.32,2.16zm-46.79,59.42c0.12-0.69,0.49-1.7,0.64-1.97,1.06-2.25,5.94-8.9,6.51-9.39-6.47,1.93-14.08,2.15-22.05,0.27,1.9,2.27,6.39,8.14,6.92,11.09-7.06-3.07-16.31-4.46-15.35-12.04,0.51-5.54,6.87-5.79,11.06-6.06,16.78-0.32,26.91-1.16,27.63,6.06,0.91,7.56-8.17,8.98-15.36,12.04z" fill="#2a232b"/>
      <path id="SvgjsPath6367" d="m156.1,86.58c0,26.52-3.69,42.96-10.41,59.39-3.86,9.74-10.63,20.41-20.4,24.19-7.19,3.49-19,3.06-25.25,3.06-12.13,0-23.71,0.64-34.11-8.75-12.44-11.71-19.41-39.59-21.16-57.45-0.14-1.47-0.87-12.83-0.87-20.44,0.99,0.33,2.21,0.81,3.54,1.4,6.62,29.87,8.3,71.28,41.56,83.02-1-2-4-6-4-6s6,4,9,6c0-1-0.98-4.88-0.98-4.88s4.78,3.43,7.78,4.43c0-1-1-4.08-1-4.08l5.23,3.45,7.97-6.92s-2.5,5.25-3.5,7.25c3.6-0.97,9.48-5.3,9.48-5.3s-0.98,3.05-0.98,4.05c29.21-16.43,29.26-51.2,33.61-80.71,0.81-0.38,1.87-0.72,4.49-1.71zm-67.01,50.49c0.28,0.33,0.61,0.74,0.98,1.21,6.41,4.06,13.67,3.89,19.81,0.08,0.63-0.83,1.11-1.43,1.27-1.56-6.48,1.93-14.1,2.14-22.06,0.27zm11.65,30.76c-0.4-0.75-0.96-1.72-1.12-2.56,0-0.01-0.3-1.24-0.3-1.24-0.02-0.09-0.38-2.55-0.31-2.55-0.05-1.35-0.24-3.13-0.34-4.14-0.77,6.8,0.31,8.43,2.07,10.49zm3.62-25.49c-0.01,0,0.01,0.1-0.03,0.27-0.31,1.44-2.68,4.35-2.9,6.13-0.08-2.96,2.78-5.4,2.93-6.4zm20.77-3.6c1.42,3.26,0.28,5.54-1.25,8.75,1.25-4.53,1.92-5.67,1.25-8.75zm-5.5-9.75c1.45,2.19,1.98,2.59,3.75,9.25-1.65-3.65-1.82-4.67-3.75-9.25zm1.5-2.75c1.98,1.63,3.34,3.11,4.75,8.5-1.79-4-2.98-6.35-4.75-8.5zm-17.25,38.5c0.55-5.94,2.31-9.27,6.25-13.75-2.9,4.54-4.75,8.64-6.25,13.75zm6.25-2.25c2.13-3.31,4.46-8.56,8.75-9.75-1.54,0.74-2.28,1.58-3.68,3.27,0,0-0.76,0.89-1.88,2.54-0.8,1.16-2.19,2.95-3.19,3.94zm4.25,4.25c2.42-3.78,2.26-4.91,4.75-7.25-2.32,3.21-2.17,4.64-4.75,7.25zm-1.75-12.25c1.26-4.02,3.23-7.66,7.25-9.75-3.05,2.35-5.41,6.35-7.25,9.75zm-10.25,2.73c-0.96-2.91-0.36-5.47,0.25-8.49-0.17,3.9-0.62,5.93-0.25,8.49zm29.5-4.98c-2.85,3.86-5.51,5.68-9,7,3.29-1.94,4.71-3.22,9-7zm4.25-11.75c-1.54,7.31-7.2,11.9-13.75,15.5,6.9-5.64,9.47-8.88,9.47-8.88,1.43-1.62,3.2-4.11,4.28-6.62zm-6,6.25c-0.05-6.28,1.03-10.04,4.5-15.5-2.16,5.35-3.69,10.95-4.5,15.5zm12.25-25.75c-0.05,2.66,0.02,7.63-7,17.25,0.02-0.05,4.82-10.56,4.76-10.56,1.35-3.15,1.69-4.39,2.24-6.69zm-7.75,5.25c-0.15-5.53,1.26-6.58,3.5-12.75-1.13,5.86-2.57,6.87-3.5,12.75zm12-25.25c-1.17,6.98-2.54,8.72-7.25,19,1.99-8.53,4.08-10.75,7.25-19zm-70.51,46.5c-1.61-3.29-2.62-5.37-1.25-8.75-0.26,1.18-0.48,1.72,0.01,4.41,0,0.01,1.24,4.34,1.24,4.34zm0.5-9.25c1.5-6.29,2.77-7.73,3.75-9.25-2.63,6.06-1.39,4.18-3.75,9.25zm-2.5-3.5c1.15-4.74,2.51-6.57,4.75-8.5-2.06,2.43-3.14,5.04-4.75,8.5zm15.75,16.25c4.37,4.74,5.65,8.51,6.25,13.75-1.42-5.18-3.24-8.79-6.25-13.75zm-8.75,1.75c1.43,0.38,2.72,1.05,4.19,2.84,0,0,1.31,1.42,3.61,5.37,0.51,0.89,0.95,1.54,0.95,1.54-1.29-1.32-5.1-6.47-5.08-6.47-1.8-2.15-2.37-2.64-3.67-3.28zm-1.25,6.75c2.72,2.57,2.46,3.8,4.75,7.25-2.5-2.52-2.53-4.16-4.75-7.25zm0.25-14.75c1.89,0.97,3.04,1.99,3.71,2.93,0,0,0.46,0.6,0.89,1.21,1.53,2.38,1.84,3.1,2.65,5.61-0.73-1.37-1.12-2.13-3.16-5.26-0.43-0.59-0.87-1.17-0.87-1.17-1.21-1.68-2.31-2.62-3.22-3.32zm17.25,4c0.67,3.47,0.41,4.42-0.25,6.5,0.39-2.45,0.36-2.15,0.25-6.5zm-0.5-6c1,0.7,2.15,1.68,2.88,3.9,0,0,1.34,3.22,0.37,7.88,0.07-1.48-0.15-8.46-3.25-11.78zm-19.75,16.5c-3.87-1.31-6.51-3.75-9-7,3.29,2.97,5.41,4.84,9,7zm0.5-3.25c-6.51-3.61-12.1-8.05-13.75-15.5,0.94,2.24,2.1,4.23,4.27,6.63,0,0,2.7,3.14,9.48,8.87zm-12.25-24.75c3.01,4.73,4.56,8.58,4.5,15.5-0.89-4.99-2.5-10.55-4.5-15.5zm-0.75,7c-3.86-5.17-6.82-10.71-7-17.25,1.25,5.53,3.4,9.05,7,17.25zm-2.75-24.75c2.42,6.51,3.65,7.56,3.5,12.75-0.76-5.69-2.37-6.44-3.5-12.75zm-1.25,6.5c-3.79-8.25-5.96-11.29-7.25-19,3.51,9.15,5.36,10.92,7.25,19z" fill="#1b141c"/>
      <path id="SvgjsPath6368" d="m150.78,88.74c-3.07,1.75-5.3,2.95-7.16,4.25-11.33,7.55-12.48,25.22-14.44,41.87-5.95-10.49-5.03-12.28-12.86-13.87-9.61-2.1-12.81-3.02-16.32,1.62-2.72-2.76-3.71-4.23-10.28-2.8-11.7,2.31-12.28,2.01-15.77,9.5-0.25,0.59-2.83,4.99-3.13,5.56-0.57-3.98,0.05-4.11-1.58-12.88-1.72-9.07-2.45-16.22-6.94-23.31-4.34-6.03-13.78-10.55-18.4-12.1,0,7.61,0.73,18.98,0.87,20.44,1.75,17.86,8.72,45.74,21.16,57.45,10.4,9.39,21.98,8.75,34.11,8.75,6.25,0,18.06,0.43,25.25-3.06,9.77-3.78,16.54-14.45,20.4-24.19,6.72-16.43,10.41-32.87,10.41-59.39-3.55,1.34-4.24,1.49-5.32,2.16zm-14.04,70.29c-4.76,7.25-15.49,12.01-19.96,12.27-1.55,0.17-8.89,1.47-25.86,0.75-2.92-0.02-11.3-0.88-15.65-3.16-16.93-7.07-24.7-35.57-28.17-53.69-1.03-4.85-2.33-17.53-2.92-28.23,6.64,2.9,14.69,7.96,18.37,14.49,3.19,6.11,3.94,13.31,5.68,20.81,2.21,9.72,1.11,6.72,2.35,13.05,0.04,0.16,0.07,0.32,0.11,0.47,9.23-14.36,4.63-12.18,19.2-15.18,4.51-1.1,7-1.32,10.11,2.4,3.87-4.58,6.28-3.27,16.14-1.2,7.81,1.73,5.93,2.91,12.33,12.65,0.25,0.38,0.76,1.19,0.84,1.34,0.57-2.28,0.85-5.97,1.5-9.47,0.19-1,3.43-16.39,4.59-19.86,3.05-9.63,7.85-12.19,15.67-17.21,1.03-0.73,1.96-1.02,4.76-2.3-1.44,23.37-5.28,52.87-19.09,72.07zm-26.73-29.7c-4.89-0.08-5.82,0.4-18.27-0.03-3.78,0.06-7.55,0.12-9.99,2.5-2.92,2.67-4.44,10.55,5.77,14.03,3.29,1.04,8.14,2.54,8.94,2.88,0-3.24-5.72-10.27-6.63-11.3,9.19,2.3,17.44,1,20.59-0.27-1.4,1.52-6.88,8.4-6.88,11.57,8.75-2.92,13.75-3.65,15.99-8.13,2.12-3.85,1.01-11.42-9.52-11.25zm-6.02,18.83c0.12-0.69,0.49-1.7,0.64-1.97,1.06-2.25,5.94-8.9,6.51-9.39-6.47,1.93-14.08,2.15-22.05,0.27,1.9,2.27,6.39,8.14,6.92,11.09-7.06-3.07-16.31-4.46-15.35-12.04,0.51-5.54,6.87-5.79,11.06-6.06,16.78-0.32,26.91-1.16,27.63,6.06,0.91,7.56-8.17,8.98-15.36,12.04z" fill="#000"/>
     </g>
    </g>
    <g id="svga-group-mustache-single">
     <path id="SvgjsPath4935" d="m100,18.13,0,0,0,0,0,0z" stroke-width="none" fill="#2a232b"/>
    </g>
    <g id="svga-group-hair-front" stroke-width="none">
     <path id="SvgjsPath4943" d="m49.325,111.56c-5.418-3.127-9.142-6.627-12.893-15.151-0.509-1.289-1.893-5.586-1.893-6.583-2.19-1.805-4.608-7.14-5.665-9.781-3.002-10.296-2.617-22.5-0.507-28.338l-0.355-0.177c-2.585,3.959-3.283,7.628-3.899,11.174-2.751-9.066-1.237-19.367,5.766-28.261-3.219,0.806-4.477,1.441-7.395,0.896,5.609-2.923,22.364-15.071,26.957-23.31-3.952,1.013-8.211,3.096-11.467,5.241,4.119-12.97,20.856-23.667,34.419-22.489-2.447-2.174-4.562-4.95-6.305-7.631,3.691,1.212,10.025,3.686,16.204,5.204,21.252,4.455,15.286,2.485,34.942-4.586-0.811,2.912-0.804,3.07-2.543,7.203,14.207-5.614,27.89,0.23,32.18,8.219h0.009c0.062,0.115,0.122,0.232,0.182,0.348-1.924-0.647-3.58-0.815-5.581-0.929,3.554,6.121,5.933,6.694,17.512,10.142,1.198,0.376,3.149,0.87,4.78,1.156-2.419,1.728-4.111,2.16-7.047,2.539,4.662,1.984,7.377,5.559,9.431,10.264,2.974,7.095,3.489,12.801,2.96,19.332-1.288-1.974-3.025-4.896-4.785-7.3l-0.343,0.202c4.382,9.461,2.86,17.286,19.494,28.646-1.435,0.321-3.059,0.489-4.729,0.489-2.914,0-5.43-0.476-7.888-1.295,0.702,8.681,0.171,12.925-0.7,16.66-2.029,7.642-6.055,13.108-13.631,14.948-4.42,5.776-8.943,8.17-12.081,8.709,2.207-3.648,7.364-13.608,8.248-17.532l-0.418-0.743c-9.509-2.35-16.209-9.562-17.565-19.881-1.947,2.924-3.769,5.106-9.482,9.489-0.465-11.558-6.145-26.409-13.25-35.719-0.038,3.226,0.066,3.476,0.888,7.833h0.007c1.052,5.11,4.22,11.59,5.277,14.718-3.106-1.771-5.685-2.961-9.079-8.315-1.651-2.597-3.648-6.999-4.548-10.02l-0.39,0.033c-0.232,1.911-0.205,3.113-0.191,3.758,0,2.133,2.814,12.875,4.655,15.999-6.57-3.309-9.514-8.744-11.7-14.128l-0.385,0.063c-0.212,3.309,0.151,10.703,1.586,16.32-5.281-1.591-8.449-3.893-11.229-8.137-1.839-3.446-1.922-4.927-2.316-8.32-5.93,7.875-15.644,14.488-22.28,16.559-0.031,0.009-0.094,0.027-0.169,0.048,0.9-1.781,1.845-3.528,2.76-5.222,2.511-4.645,3.927-7.333,5.656-11.639-16.04,11.084-19.196,28.068-15.051,46.874-2.798-1.794-3.247-2.156-5.58-4.629,0.542,3.657,0.365,9.122-1.793,14.192l-0.033,0.078,0.033,0.078c1.204,2.838,0.804,2.042,1.22,2.702z" fill="#2a232b"/>
     <path id="SvgjsPath4944" d="m125.2,77.964c-0.578-11.19-5.923-25.294-12.679-34.51,14.042,3.831,17.75,26.168,12.679,34.51zm-19.19-41.572c-3.612,7.222-0.428,21.701,12.146,28.871-5.632-6.689-10.538-13.404-12.146-28.871zm2.442,30.041c-7.19-8.037-10.353-19.174-10.344-29.233-3.515,6.254-2.14,23.155,10.499,29.518-0.049-0.083-0.101-0.192-0.152-0.285zm-19.45-29.433c-4.366,7.103-9.458,26.381,9.106,31.973-11.058-9.117-11.106-19.069-9.106-31.973zm-26.89,32.123c0.075-0.021,0.138-0.04,0.169-0.048,6.428-2.005,16.639-9.568,22.606-17.115,0.386-2.524,0.36-4.479,0.876-6.959-4.624,8.506-18.098,20.262-23.651,24.122zm-9.419,20.024c-6.907-10.823-1.19-31.428,1.309-33.572-4.025,2.477-12.709,25.319-1.309,33.572zm110.31-17.6c-0.902,15.205-9.329,25.748-18.371,35.513,10.352-1.977,21.403-18.836,18.371-35.513zm-38.25-58.539c14.4,7.94,18.05,11.91,23.25,29.992,0-13.037-7.97-31.013-23.25-29.992zm-15.01-3.008c-3.342,13.6,2.781,23,12.857,27.2-6.61-6.215-13.16-17.513-12.86-27.2zm-74.449,46.683c6.742,0.379,16.736-3.369,18.709-11.683-4.675,6.209-8.742,9.686-18.709,11.683zm83.639-50.183c14.63-5.633,24.13-4.452,28.13-2.966-3.47-2.229-17.19-6.049-28.13,2.966zm-80.111,9.535c10.126-6.212,14.655-5.279,20.253-5.606-7.651-3.156-13.328-1.051-20.253,5.606zm99.604-6.994c10.748,6.188,12.979,9.687,25.349,4.862-6.77,2.259-15.77-0.088-25.35-4.862zm-51.681-2.585c6.239,0.003,10.235,2.332,13.261,4.607-1.65-2.99-8.287-7.094-13.261-4.607zm57.067,40.863c-1.848,11.267,5.017,16.082,14.445,17.591-5.972-1.811-12.597-8.079-14.445-17.591zm-83.255-3.216c8.802-4.429,20.361-14.742,20.361-24.204-4.172,8.211-10.469,17.101-20.361,24.204zm122.68,23.314c-12.19,1.091-18.78-9.029-26.24-17.417,2.801,7.468,8.217,12.322,14.619,17.002,2.223,0.672,4.515,1.073,7.134,1.073,1.67,0,3.294-0.168,4.729-0.489-0.084-0.057-0.159-0.112-0.241-0.169zm-145.73-0.273c-3.62,12.01-6.057,30.855,11.816,44.412-10.191-11.56-13.582-30.289-11.816-44.416zm46.988-55.457c-12.177,0.251-21.997,1.313-28.1,16.423,13.125-12.502,18.901-13.374,28.1-16.423zm-60.378,46.032c1.73-6.653,6.276-11.247,13.078-13.775-8.591,0.159-11.718,4.242-13.078,13.775zm113.71,1.318c-6.883,10.962,0.74,24.952,14.349,29.395-13.67-14.084-14.07-17.79-14.35-29.395zm31.05-13.795c-2.82-12.242-8.3-19.007-16.6-14.302,8.591-2.83,10.483,6.26,16.606,14.302zm-37.43,26.488c10.059-10.14,6.667-25.225-1.631-31.637,6.558,13.352,4.979,20.616,1.631,31.637z" fill="#1b141c"/>
     <path id="SvgjsPath4945" d="m110.2,28.735c-7.752-5.34-11.439-9.634-17-16.667,5.304,4.803,11.901,11.474,17,16.667zm13.666-5.333c12.675,2.771,10.384,1.424,18.667,9.333-5.952-8.52-7.595-8.779-18.667-9.333zm4,10c7.079,3.301,11.655,15.926,13,23.333,0.083-8.8-4.482-20.998-13-23.333zm12.334,27.333c-0.438,8.567,3.08,11.935,7.333,21.667-2.085-9.124-6.134-12.112-7.333-21.667zm18.666,7.334c-0.707,8.421,0.23,14.627-3.666,21.333,5.265-6.235,4.413-13.241,3.666-21.333zm9-0.334c2.15,5.972-0.532,17.421-3.666,22.667,5.013-5.877,7.226-16.392,3.666-22.667zm-15-34c11.648,2.03,4.693,18.159,19.334,27.333-12.787-12.18-6.96-27.518-19.334-27.333zm-6.333-14.333c10.708,1.315,15.663,5.39,19.667,14-2.496-10.187-9.627-14.629-19.667-14zm-31.333,21.667c9.562,6.386,13.174,17.608,13.333,29,2.284-11.368-1.665-24.338-13.333-29zm-0.334-42.334c13.246-1.465,13.697-1.931,22.334,0.333-6.088-3.202-10.744-4.149-22.334-0.333zm-40.333-6c9.174,6.781,29.321,12.629,37.667-1-8.907,10.042-25.635,6.942-37.667,1zm17.322,11.667c5.054-0.75,7.943,0.543,13.334,7.667-2.72-6.078-7.09-9.982-13.331-7.667zm-9.333,4c-8.516-0.987-16.124-0.718-19.667,8.333,4.942-7.444,9.354-7.324,19.667-8.333zm-34.667-0.333c4.683-4.046,14.198-10.146,22.333-9-7.772-2.868-17.289,2.361-22.333,9zm-13,21.666c8.239-2.621,16.719-6.773,20.667-14.333-4.691,5.631-12.222,9.43-20.667,14.333zm15-0.666c-1.195,12.697-8.067,16.114-14,25.667,9.767-9.818,15.31-14.217,14-25.667zm18.667,18c-12.292,1.269-17.363,18.449-16.667,30.667,1.949-11.298,6.072-27.175,16.667-30.667zm6.667-7.334c-1.015,7.647-1.94,11.476-5.333,21,4.901-7.783,5.851-13.793,5.333-21zm21.333-4c-2.42,8.248-4.131,16.801-0.667,24.667-1.513-7.381-0.244-12.971,0.667-24.667zm-8.667-20.333c-2.639,10.946-4.018,15.103-9,22.333,6.776-6.444,8.68-12.696,9-22.333zm17.334,18.333c-4.181,6.509-4.464,12.145-2.667,19.667-0.156-7.911-0.064-12.482,2.667-19.667zm5.666,2.667c-2.494,6.409-2.027,11.348,0.667,16.667-1.448-5.476-1.857-8.872-0.667-16.667zm-62,20.333c-5.414,5.987-4.846,14.654-4,22.667,1.027-9.385,0.2-16.137,4-22.667zm-8.666,7.334c-2.677,7.568-3.156,17.894,1.333,25-2.598-7.11-2.175-17.934-1.333-25zm-7.334-16c-4.312,9.962-5.281,17.968-0.668,30.333-1.618-10.732-2.057-17.168,0.667-30.333zm-6.666,0c11.055-17.598,17.841-11.899,22.332-20.667-6.616,7.682-15.536,2.239-22.333,20.667zm46-28.667c0.119,6.162-2.69,10.826-5,17.667,3.319-5.566,6.455-11.389,5-17.667zm67.666-15c2.816,5.948,9.814,9.055,16,9-4.906-1.016-12.358-4.216-16-9zm5.667,42.333c-0.258,5.394,3.563,10.916,8,13.667-2.889-2.608-7.209-8.757-8-13.667z" fill="#3a353a"/>
     <path id="SvgjsPath4946" d="m183.97,67.675c-6.263-4.256-7.33-5.468-10.979-9.56,0,0-0.13-0.15-0.36-0.41-6.695-9.373-4.181-9.611-8.46-18.85,1.892,2.585,3.736,5.738,5.101,7.78,0.21-3.013,1.227-10.089-2.931-20.01-1.825-4.18-4.68-8.3-8.859-10.08,4.107-0.531,5.81-2.099,6.81-2.76-1.729-0.267-3.954-0.827-5.24-1.23-11.193-3.341-13.854-3.955-17.21-9.73,2.593,0.148,4.093,0.503,5.62,1.06-0.14-0.29-0.3-0.6-0.46-0.9h-0.01c-1.685-3.134-5.694-6.731-10.811-8.71-6.66-2.164-13.447-2.699-21.119,0.33,1.653-3.92,1.639-4.2,2.47-7.16-20.085,7.173-13.869,9.179-35.19,4.71-6.461-1.587-13.197-4.26-16.72-5.37,1.142,1.815,3.804,5.62,6.19,7.74-12.222-1.064-30.117,9.186-34.19,23.22,3.924-2.671,8.58-4.681,11.42-5.41-4.303,7.714-21.63,20.432-27.16,23.08,3.367,0.755,4.777,0.036,7.48-0.64-5.514,7-8.194,16.316-5.92,26.15v0.01c0.251,1.066,0.398,1.582,0.73,2.61,0.655-3.762,1.25-7.683,4.01-11.91-1.983,5.486-2.645,17.666,0.51,28.48,1.14,2.849,3.531,8.031,5.65,9.8,0,0.398,0.873,3.943,1.91,6.57,3.745,8.508,7.459,12.167,13.64,15.62-1.071-1.842-0.152,0.086-1.6-3.33,1.533-3.602,2.02-6.65,2.02-10.25,0.024-1.064-0.082-3.162-0.12-3.42,2.12,2.249,2.849,2.704,5.59,4.46-6.552-28.9,6.73-41.52,14.314-46.761-2.402,5.989-5.563,11.027-8.364,16.631,0.16-0.041,0.52-0.145,0.6-0.17h0.01c7.426-2.316,17.112-9.638,22.08-16.23,0.347,2.986,0.478,4.515,2.29,7.91,2.991,4.564,6.373,6.777,11.68,8.32-1.555-5.824-1.87-13.481-1.67-16.6,2.399,5.909,5.43,11.094,12.06,14.34h0.01c0.14,0.07,0.29,0.14,0.42,0.21-1.721-1.734-5.06-14.067-5.06-16.5-0.016-0.705-0.036-1.87,0.189-3.73,0.945,3.177,2.972,7.555,4.57,10.07,3.576,5.639,6.229,6.686,9.6,8.64-1.11-3.542-3.387-7.564-5.149-14.01-0.221-0.8-0.311-1.34-0.32-1.34-0.69-3.673-0.889-4.392-0.86-7.05,6.238,8.171,12.493,23.175,12.87,35.53,3.443-2.632,6.896-5.363,9.54-9.33,1.357,10.283,8.577,17.26,17.561,19.5,0.109,0.2,0.229,0.4,0.34,0.6-0.824,3.688-6.054,13.94-8.43,17.76,3.147-0.36,7.957-2.755,12.59-8.79,7.616-1.846,11.667-7.385,13.71-15.08,0.768-3.291,1.446-7.654,0.729-16.42,4.59,1.531,9.511,1.46,12.878,0.61zm-133.88,26.16c-0.188-2.277-0.54-4.608-1.04-6.9,0.877,1,1.603,1.796,3.63,3.4,0.161,2.242,0.458,4.618,0.96,6.97-1-0.872-2.626-2.068-3.55-3.47zm100.37-13.25c1.277,2.101,2.995,3.706,2.311,7.61-0.479-1-1.522-3.99-2.311-7.61zm20.061-13.76c-0.455,12.426-1.084,26.441-13.381,31.09,7.956-11.178,5.978-16.145,6.301-22.76-0.814,4.577-0.103,1.329-0.99,8.41-1.297,6.64-8.454,19.527-16.7,22.81,0.611-0.858,1.893-2.938,2.71-4.229,4.354-7.071,5.899-11.333,6.04-16.21-0.02-0.34-0.06-0.54-0.06-0.54-0.336-2.668-2.538-5.358-4.44-7.26-0.239-1.495-1.114-7.706-1.52-14.28-0.269,3.7-0.338,8.969,0.199,13l0.011,0.01c0.862,5.889,2.244,10.208,3.029,11.28-1.551-0.623-1.77-0.781-2.77-1.32-8.722-4.82-11.62-9.872-13.46-18.88,1.596-2.724,1.738-4.376,2.22-6.48v-0.02c0.514-1.567-0.56-9.591-0.56-10.61,0-0.12,0.02-0.2,0.029-0.22-0.085,0.087-0.096,0.808-0.1,0.93-0.229,7.18,0.566,9.475-2.78,16.01-0.279,0.45-0.52,0.96-0.85,1.42-2.167,2.786-2.007,2.823-7.78,8.24,0.679-11.247-5.389-26.989-13.479-34.75,0.11-3.74-0.079-4.97-0.681-5.97,0.706,1.733,0.238,3.75,0,5.96-0.573,4.723,0.177,11.666,5.37,21.61-6.189-4.771-10.123-12.717-12.12-20.04,0.563-3.521,0.906-4.625,1.38-8.68-1.36,5.964-3.1,9.308-3.1,15.4,0.134,3.435,2.431,11.041,4.84,15.03-4.119-2.958-8.768-9.078-10.95-16.89,0.597-7.936,1.488-12.376,2.14-16.61-3.518,11.411-3.571,15.709-3.85,20.82-0.02,1.28,0.01,2.57,0.01,3.53,0.01,0.48,0.01,0.88,0.02,1.17,0.03,0.28,0.04,0.44,0.04,0.44,0.545,5.442,1.496,8.688,2.04,10.04-4.951-2.176-9.931-6.937-11.1-12.87-1.616-7.53,2.373-17.62,2.68-18.62-0.853,1.706-4.395,7.961-4.51,14.97-2.026,2.257-4.629,4.75-5.63,5.64-5.605,5.083-10.98,8.705-15.96,11.19,0.13-0.2,0.27-0.42,0.41-0.64l-0.01,0.03c6.144-9.044,9.965-16.674,10.18-27.55-0.58,4.238-1.601,7.9-2.866,11.256-10.46,5.48-18.753,18.57-17.924,37.234-0.15-0.17-0.31-0.33-0.47-0.5-7.064-6.96-4.696-14.295-2.67-22.49,2.321-9.233,3.71-9.51,4.71-10.51-3.46,2.069-5.596,8.819-6.82,12.85-2.729,8.793-1.479,13.522,0.28,16.65,1.366,9.164,2.228,14.714,0.21,22.79-1.216-2.735-2.888-9.783-3.12-13.34-0.673-5.966-0.763-7.961-1.25-15.26-0.494,7.405-1.295,20.041,3.62,29.87-10.349-9.856-14.864-24.953-9.27-42.86-3.354,7.285-4.874,13.868-3.84,21.76-6.401-11.16-7.021-26.98-4.14-38.48,2.612-3.149,5.684-4.568,7.68-5.57-6.141,2.238-7.106,3.404-9.64,6.19-1.762,2.461-2.938,4.705-3.84,8.12-0.536-8.169,1.545-16.16,7.4-23.97,5.653-1.508,10.804-4.672,15.4-8.12-6.775,3.736-10.945,5.852-17.88,7.81-0.886,0.262-3.403,1.002-4.34,1.12,7.457-3.866,21.268-13.739,25.05-22.81,3.97-1.186,6.349-1.333,9.04-1.66-7.141,0-12.19,0.606-19.89,5.53,4.617-9.06,19.642-20.74,33.96-20.74,2.847,2.213,6.718,3.623,10.19,5.6-2.169-1.853-7.413-4.64-9.28-6.11,0-0.01,0-0.01-0.01,0-1.191-0.95-1.73-0.982-5.89-6.27,9.406,4.473,12.744,5.31,16.57,6.2,18.733,4.262,17.219,0.998,31.89-5.82-0.354,1.012-2.504,6.973-3.28,7.73-2.076,3.669-4.594,6.552-8.51,8.51,4.48-1.485,7.663-4.723,9.87-9.01,0.65-0.325,4.727-1.365,6.37-1.54,8.218-0.886,11.799-0.144,17.64,2.5,1,0.555,4.702,2.439,7.261,5.41-6.718-2.101-17.275,0.695-23.921,2.92,1.711-0.326,10.455-2.156,15.62-2.54,1.891-0.16,3.761-0.08,3.761-0.09,0.09,0,0.18,0.01,0.27,0.01,2.622,5.451,4.2,7.416,17.53,10.66,1.372,0.318,2.838,0.494,3.83,0.62-2.315,1.026-3.594,1.278-6.32,1.51-10.533,0.214-12.152-4.801-18.6-6.76,6.802,3.031,6.574,7.8,18.97,7.8,3.643,1.355,6.84,6.796,8.439,10.49,2.288,5.485,3.317,11.582,3.57,17.52-1.612-2.944-7.708-12.381-11.07-13.57-0.761-0.297-1.4-0.304-2.14-0.23,2.067,0,3.499,1.242,4.71,2.93h0.01c2.547,3.711,3.938,9.101,5.25,13.6,0,0,0.061,0.2,0.16,0.54,2.532,8.814,8.096,15.083,15.771,19.33-16.134,0.714-17.671-9.528-25.601-18.32,4.574,6.273,6.914,14.612,14.682,17.909zm-13.291-3.25c-2.577-6.236-1.016-3.791-4.221-10.15,3.521,4.422,3.78,7.85,5.73,11.77-7.248-1.936-14.8-9.364-15-17.58-0.04-0.78-0.061-1.26-0.061-1.26,1.422,8.511,6.287,13.613,13.552,17.22zm-8.68-16.869c-1.18-3.591-8.053-17.584-14.279-19.61-1.982-0.853-4.928-1.363-7.24-1.91,8.267,0.722,12.23,0.498,18.76,12.86,0.59,1.14,1.18,2.43,1.75,3.76-1.69-13.577-6.567-20.283-12.76-25.08-4.292-2.865-7.618-3.228-10.29-3.68,2.949,0.081,6.466,0.083,11,2.59,4.633,2.963,7.719,6.044,10.82,13.87,0.22,0.52,0.369,0.97,0.46,1.29,0.1,0.31,0.159,0.49,0.159,0.49,1.694,5.424,1.789,9.687,1.62,15.42zm-27.85-10.591c-6.086-6.25-11.09-14.396-10.61-23.07,0.697,9.229,7.345,18.064,13.82,25.01-12.517-1.666-21.022-10.063-28.2-19.91,10.698,11.797,17.767,15.435,24.99,17.97zm-33.4-30.24c-0.01,0.01-0.01,0.02-0.02,0.03,3.177-1.248,9.33-0.122,12.08,4.32-2.801-3.547-8.862-5.14-12.62-3.77,1.205-3.917,6.946-4.981,10.93-4.42-2.532,0-6.33,0.606-8.54,2.03-1.022,0.636-1.22,1.03-1.83,1.81zm-28.39,39.68c5.625-8.431,4.559-4.042,8.75-15.7,0.465-1.342,1.924-5.56,2.9-7.75-0.02,0.1-0.14,0.53-0.32,1.19-3.206,12.822-4.09,14.826-8.8,20.32,8.872-5.32,14.373-10.241,19-19.54-3.091,10.387-11.86,17.683-21.53,21.48zm-3.19-16.76v-0.01c0-12.914,7.494-26.534,19.37-25.05-13.802,0-18.42,19.599-18.42,23.9,6.221-7.458,17.108-13.956,28.27-15.99-9.501,2.929-21.763,9.859-29.23,17.88,0.01-0.24,0.01-0.49,0.01-0.73zm-19.68,27.76c6.452,0.207,12.076-2.905,16.42-7.61-3.988,6.273-12.402,9.888-18.82,7.76,9.583-3.201,16.521-12.126,18.58-22.2-0.775,9.675-5.943,17.08-14.12,21.24-1.754,0.812-1.06,0.381-2.06,0.81z" fill="#000"/>
    </g>
    <g id="svga-group-glasses-single" stroke-width="none">
     <path id="SvgjsPath4983" opacity="0.2" d="m52.7,78.99c11.69,3.22,28.34-0.15,40.03,7.14-0.08,0.44-0.16,0.87-0.25,1.31-0.64,2.91-3.23,4.82-6.36,5.38-8.44,1.51-22.57,1.32-30.84,0.74-1.19-0.08-2.16-0.9-2.36-2-0.81-4.36-1.12-8.02-0.22-12.57zm53.99,1.36c0.05,2.48,0.32,4.73,0.83,7.1,0.63,2.91,3.23,4.82,6.36,5.38,8.44,1.51,22.57,1.32,30.84,0.74,1.19-0.08,2.16-0.9,2.36-2,0.31-1.69,0.55-3.28,0.67-4.85-11.7-8.04-28.85-4.44-40.84-7.71-0.14,0.43-0.23,0.88-0.22,1.34z" fill="#FFF"/>
     <path id="SvgjsPath4984" opacity="0.4" d="m93.31,80.35c-0.05,2.02-0.24,3.88-0.58,5.78-11.69-7.3-28.35-3.92-40.03-7.14,0.03-0.12,0.04-0.24,0.07-0.37,0.26-1.24,1.34-2.15,2.68-2.28,12.7-1.18,21.35-1.08,33.89-0.11,2.27,0.19,4.02,1.99,3.97,4.12zm53.93-1.72c-0.26-1.24-1.34-2.15-2.68-2.28-12.7-1.18-21.35-1.08-33.89-0.11-1.78,0.14-3.22,1.27-3.75,2.78,11.98,3.27,29.14-0.33,40.84,7.71,0.2-2.6,0.09-5.16-0.52-8.1z" fill="#FFF"/>
     <path id="SvgjsPath4985" d="m153,78.74h-5.22c-0.02-0.07-0.02-0.14-0.04-0.21-0.3-1.44-1.57-2.52-3.13-2.67-12.9-1.2-21.6-1.07-33.98-0.11-0.15,0.01-0.29,0.05-0.43,0.07l0.03-0.03s-0.12,0.03-0.33,0.08c-0.09,0.02-0.19,0.04-0.28,0.06-1.08,0.24-3.42,0.7-5.37,0.76-3.91,0.12-4.75,0.11-8.5,0-1.95-0.06-4.29-0.52-5.37-0.76-0.09-0.03-0.18-0.04-0.28-0.06-0.21-0.05-0.33-0.08-0.33-0.08l0.03,0.03c-0.14-0.02-0.28-0.06-0.43-0.07-12.39-0.96-21.09-1.09-33.98,0.11-1.56,0.15-2.83,1.23-3.13,2.67-0.02,0.07-0.02,0.14-0.04,0.21h-5.22v2.92h4.79c-0.17,1.7-0.19,3.33-0.07,4.97h1.06c-0.2-2.54-0.09-5.05,0.51-7.92,0.21-1.02,1.1-1.78,2.21-1.88,6.3-0.59,11.69-0.86,16.98-0.86,4.97,0,9.99,0.22,16.81,0.75,2,0.15,3.53,1.74,3.49,3.61-0.05,2.2-0.28,4.22-0.69,6.29h1.07c0.39-2.02,0.62-4.02,0.67-6.27,0.01-0.66-0.13-1.28-0.39-1.85,0.33-0.07,0.85-0.16,1.51-0.21,2.51-0.18,8.07-0.14,10.11,0,0.66,0.05,1.19,0.14,1.51,0.21-0.26,0.57-0.41,1.19-0.39,1.85,0.05,2.25,0.28,4.25,0.67,6.27h1.07c-0.41-2.07-0.64-4.09-0.68-6.29-0.04-1.87,1.49-3.46,3.49-3.61,6.82-0.53,11.84-0.75,16.81-0.75,5.29,0,10.69,0.27,16.98,0.86,1.11,0.1,2,0.86,2.21,1.88,0.6,2.87,0.71,5.38,0.51,7.92h1.05c0.13-1.64,0.1-3.27-0.07-4.97h4.78v-2.92z" fill="#26120b"/>
    </g>
   </g>
  </g>
  <rect id="SvgjsRect1036" opacity="0.5" display="none" height="15" width="200" y="185" x="0" fill="#ecf0f1"/>
  <text id="SvgjsText1037" style="text-anchor:middle;" font-size="0.84em" display="none" y="185" x="100" font-weight="400" fill="#000000">
   <tspan id="SvgjsTspan1038" x="100" style="text-anchor:middle;" font-weight="400" dy="0">Created on CardinaliDesigns.com</tspan>
  </text>
 </g>
 <defs id="SvgjsDefs1001">
  <radialGradient id="SvgjsRadialGradient2886" class="svga-on-canvas-facehighlight-gradient-single-0" gradientUnits="userSpaceOnUse" cy="114" cx="100" r="41">
   <stop id="SvgjsStop2887" stop-opacity="0.5" stop-color="#f8d3b8" offset="0"/>
   <stop id="SvgjsStop2888" stop-opacity="0" stop-color="#e9b995" offset="0.9"/>
  </radialGradient>
  <radialGradient id="SvgjsRadialGradient2890" class="svga-on-canvas-facehighlight-gradient-single-1" gradientUnits="userSpaceOnUse" cy="54" cx="100" r="37">
   <stop id="SvgjsStop2891" stop-opacity="0.5" stop-color="#f8d3b8" offset="0"/>
   <stop id="SvgjsStop2892" stop-opacity="0" stop-color="#e9b995" offset="0.9"/>
  </radialGradient>
  <linearGradient id="SvgjsLinearGradient4957" y2="137" class="svga-on-canvas-mouth-gradient-single-0" gradientUnits="userSpaceOnUse" x2="100" y1="140" x1="100">
   <stop id="SvgjsStop4958" stop-opacity="1" stop-color="#e1ac85" offset="0.1"/>
   <stop id="SvgjsStop4959" stop-opacity="1" stop-color="#daa075" offset="1"/>
  </linearGradient>
  <radialGradient id="SvgjsRadialGradient6103" class="svga-on-canvas-eyesback-gradient-left-0" gradientUnits="userSpaceOnUse" cy="84.919" cx="126.29" gradientTransform="matrix(-1,0,0,1,200,0)" r="10.712">
   <stop id="SvgjsStop6104" stop-opacity="1" stop-color="#FFF" offset="0"/>
   <stop id="SvgjsStop6105" stop-opacity="1" stop-color="#fdfefe" offset="0.544"/>
   <stop id="SvgjsStop6106" stop-opacity="1" stop-color="#f6f8f9" offset="0.74"/>
   <stop id="SvgjsStop6107" stop-opacity="1" stop-color="#eaeff2" offset="0.879"/>
   <stop id="SvgjsStop6108" stop-opacity="1" stop-color="#d9e3e8" offset="0.992"/>
   <stop id="SvgjsStop6109" stop-opacity="1" stop-color="#d8e2e7" offset="1"/>
  </radialGradient>
  <radialGradient id="SvgjsRadialGradient6111" class="svga-on-canvas-eyesback-gradient-right-0" gradientUnits="userSpaceOnUse" cy="84.919" cx="125.89" r="10.712">
   <stop id="SvgjsStop6112" stop-opacity="1" stop-color="#FFF" offset="0"/>
   <stop id="SvgjsStop6113" stop-opacity="1" stop-color="#fdfefe" offset="0.544"/>
   <stop id="SvgjsStop6114" stop-opacity="1" stop-color="#f6f8f9" offset="0.74"/>
   <stop id="SvgjsStop6115" stop-opacity="1" stop-color="#eaeff2" offset="0.879"/>
   <stop id="SvgjsStop6116" stop-opacity="1" stop-color="#d9e3e8" offset="0.992"/>
   <stop id="SvgjsStop6117" stop-opacity="1" stop-color="#d8e2e7" offset="1"/>
  </radialGradient>
  <radialGradient id="SvgjsRadialGradient6129" fx="135.43" fy="85.522" class="svga-on-canvas-eyesfront-gradient-left-3" gradientUnits="userSpaceOnUse" cy="85.489" cx="123.72" gradientTransform="matrix(0.9998,0.0208,0.0166,-0.7998,-48.826,151.2907)" r="16.667">
   <stop id="SvgjsStop6130" stop-opacity="1" stop-color="#daa075" offset="0"/>
   <stop id="SvgjsStop6131" stop-opacity="0.3" stop-color="#daa075" offset="0.7"/>
   <stop id="SvgjsStop6132" stop-opacity="0" stop-color="#e9b995" offset="1"/>
  </radialGradient>
  <radialGradient id="SvgjsRadialGradient6134" class="svga-on-canvas-eyesfront-gradient-left-4" gradientUnits="userSpaceOnUse" cy="101.32" cx="122.87" gradientTransform="matrix(-1,0,0,0.7923,200,21.0491)" r="26.878">
   <stop id="SvgjsStop6135" stop-opacity="0" stop-color="#000" offset="0.95"/>
   <stop id="SvgjsStop6136" stop-opacity="0.2" stop-color="#000" offset="1"/>
  </radialGradient>
  <radialGradient id="SvgjsRadialGradient6150" fx="135.03" fy="85.522" class="svga-on-canvas-eyesfront-gradient-right-3" gradientUnits="userSpaceOnUse" cy="85.489" cx="123.32" gradientTransform="matrix(-0.9998,0.0208,-0.0166,-0.7998,248.0273,151.299)" r="16.667">
   <stop id="SvgjsStop6151" stop-opacity="1" stop-color="#daa075" offset="0"/>
   <stop id="SvgjsStop6152" stop-opacity="0.3" stop-color="#daa075" offset="0.7"/>
   <stop id="SvgjsStop6153" stop-opacity="0" stop-color="#e9b995" offset="1"/>
  </radialGradient>
  <radialGradient id="SvgjsRadialGradient6155" class="svga-on-canvas-eyesfront-gradient-right-4" gradientUnits="userSpaceOnUse" cy="101.32" cx="122.48" gradientTransform="matrix(1,0,0,0.7923,0,21.0491)" r="26.878">
   <stop id="SvgjsStop6156" stop-opacity="0" stop-color="#000" offset="0.95"/>
   <stop id="SvgjsStop6157" stop-opacity="0.2" stop-color="#000" offset="1"/>
  </radialGradient>
  <linearGradient id="SvgjsLinearGradient6311" y2="130" class="svga-on-canvas-chinshadow-gradient-single-0" gradientUnits="userSpaceOnUse" x2="100" y1="171" x1="100">
   <stop id="SvgjsStop6312" stop-opacity="0.8" stop-color="#daa075" offset="0"/>
   <stop id="SvgjsStop6313" stop-opacity="1" stop-color="#bb7440" offset="0.7"/>
  </linearGradient>
 </defs>
</svg>
