<?xml version="1.0" encoding="UTF-8" standalone="no"?>
<!-- Created with Inkscape (http://www.inkscape.org/) -->
<svg id="svg3719" xmlns:rdf="http://www.w3.org/1999/02/22-rdf-syntax-ns#" xmlns="http://www.w3.org/2000/svg" viewBox="0 0 48 48" version="1.1" xmlns:cc="http://creativecommons.org/ns#" xmlns:dc="http://purl.org/dc/elements/1.1/">
<metadata id="metadata3724">
<rdf:RDF>
<cc:Work rdf:about="">
<dc:format>image/svg+xml</dc:format>
<dc:type rdf:resource="http://purl.org/dc/dcmitype/StillImage"/>
<dc:title/>
</cc:Work>
</rdf:RDF>
</metadata>
<g id="layer1">
<g id="g26" transform="matrix(1.25,0,0,-1.25,23.998125,4.2835654)">
<path id="path28" d="M-0.00026853,3.4269c-10.602,0-19.198-8.8137-19.198-19.687,0-8.6976,5.5009-16.075,13.13-18.68,0.96062-0.18007,1.3107,0.42781,1.3107,0.94988,0,0.46648-0.016501,1.7052-0.025931,3.3476-5.3406-1.1892-6.4674,2.6394-6.4674,2.6394-0.8734,2.2732-2.1322,2.8787-2.1322,2.8787-1.7433,1.2218,0.13201,1.1976,0.13201,1.1976,1.9271-0.14019,2.9408-2.0291,2.9408-2.0291,1.7126-3.008,4.4943-2.139,5.5881-1.6363,0.17444,1.2726,0.66949,2.1403,1.2187,2.6321-4.2633,0.4967-8.7458,2.1862-8.7458,9.7297,0,2.1487,0.74846,3.9059,1.9766,5.2824-0.19802,0.4979-0.8569,2.4992,0.18741,5.2099,0,0,1.6124,0.52932,5.2805-2.0182,1.5311,0.43627,3.1742,0.65501,4.8066,0.66226,1.6301-0.00725,3.2732-0.22599,4.8066-0.66226,3.6657,2.5475,5.2746,2.0182,5.2746,2.0182,1.0478-2.7107,0.38896-4.712,0.19094-5.2099,1.2305-1.3765,1.9743-3.1336,1.9743-5.2824,0-7.5628-4.4896-9.2269-8.767-9.7139,0.68952-0.60788,1.3036-1.8091,1.3036-3.6461,0-2.6309-0.023574-4.7542-0.023574-5.3996,0-0.52691,0.34535-1.1396,1.3201-0.94746,7.6237,2.6092,13.12,9.9822,13.12,18.677,0,10.873-8.5972,19.687-19.202,19.687" fill-rule="evenodd" fill="#1b1817"/>
</g>
</g>
</svg>
